<svg width="267" height="27" viewBox="0 0 267 27" fill="none" xmlns="http://www.w3.org/2000/svg">
<path d="M72.9048 11.5744V18.138C72.9048 19.0491 73.7016 19.8359 74.6242 19.8359C75.6307 19.8359 76.3855 19.0491 76.3855 18.138V11.5744C76.3855 9.71089 77.9371 8.19939 79.8032 8.19939C81.6694 8.19939 83.2 9.71089 83.2 11.5744V18.138C83.2 19.0491 83.9968 19.8359 84.9613 19.8359C85.9258 19.8359 86.6806 19.0491 86.6806 18.138V11.5744C86.6806 7.8681 83.5565 4.78298 79.8032 4.78298C76.05 4.78298 72.9048 7.8681 72.9048 11.5744ZM66.3839 1.90491C66.3839 2.9816 67.2436 3.83052 68.3129 3.83052C69.4452 3.83052 70.3048 2.9816 70.3048 1.90491C70.3048 0.828221 69.4452 0 68.3129 0C67.2436 0 66.3839 0.828221 66.3839 1.90491ZM66.5936 6.52224V18.1173C66.5936 19.0284 67.3903 19.8152 68.3129 19.8152C69.3194 19.8152 70.0952 19.0284 70.0952 18.1173V6.52224C70.0952 5.56978 69.2984 4.78298 68.3129 4.78298C67.3903 4.78298 66.5936 5.56978 66.5936 6.52224ZM47.7436 18.6971C47.9742 19.3804 48.6661 19.8359 49.3581 19.8359C50.05 19.8359 50.7419 19.3804 50.9516 18.6971L53.8032 11.2224L56.6968 18.6971C56.9694 19.3804 57.5984 19.8359 58.3323 19.8359C59.0661 19.8359 59.6532 19.3804 59.9468 18.6971L64.4339 7.16411C64.7694 6.25307 64.2661 5.30061 63.4065 4.90721C63.2177 4.84509 63.05 4.80368 62.8403 4.80368C62.1484 4.80368 61.4565 5.2592 61.1419 5.94248L58.3323 13.4379L55.4806 5.90107C55.2081 5.2385 54.579 4.78298 53.8242 4.78298C53.0694 4.78298 52.5032 5.2385 52.2306 5.90107L49.379 13.4379L46.5274 5.94248C46.2758 5.2592 45.5629 4.80368 44.829 4.80368C44.6613 4.80368 44.4726 4.84509 44.3048 4.90721C43.4032 5.30061 42.921 6.25307 43.2774 7.16411L47.7645 18.6971H47.7436ZM38.3081 12.2991C38.3081 14.556 36.4419 16.3988 34.1984 16.3988C31.9548 16.3988 30.0048 14.556 30.0048 12.2991C30.0048 10.0422 31.8919 8.19939 34.1984 8.19939C36.5048 8.19939 38.3081 10.0629 38.3081 12.2991ZM26.5871 12.2991C26.5871 16.5023 29.9839 19.8359 34.1774 19.8359C38.371 19.8359 41.7468 16.4816 41.7468 12.2991C41.7468 8.11656 38.35 4.80368 34.1774 4.80368C30.0048 4.80368 26.5871 8.15798 26.5871 12.2991ZM17.3403 11.5744V18.1587C17.3403 19.1526 18.0952 19.898 19.0597 19.898C20.0242 19.898 20.779 19.1526 20.779 18.1587V11.5744C20.779 9.71089 22.2677 8.19939 24.1968 8.19939C25.1194 8.19939 25.9161 7.45399 25.9161 6.50153C25.9161 5.54908 25.1194 4.80368 24.1968 4.80368C20.4016 4.80368 17.3194 7.8888 17.3194 11.5951L17.3403 11.5744ZM92.95 21.6994C92.5936 21.1817 92.0484 20.8505 91.4613 20.8505C91.1258 20.8505 90.8742 20.954 90.5597 21.1196C89.721 21.6787 89.4694 22.7347 89.9936 23.5215C91.3984 25.6127 93.7048 27 96.4726 27C99.2403 27 101.484 25.6127 102.847 23.5215C103.371 22.7347 103.119 21.6787 102.281 21.1196C102.008 20.954 101.715 20.8505 101.421 20.8505C100.834 20.8505 100.268 21.1817 99.8903 21.6994C99.1565 22.8175 97.8984 23.5629 96.4726 23.5629C94.9839 23.5629 93.6839 22.8175 92.95 21.6994ZM88.8403 12.2991C88.8403 16.5023 92.2371 19.8359 96.4726 19.8359C100.708 19.8359 104 16.4816 104 12.2991C104 8.11656 100.603 4.80368 96.4726 4.80368C92.3419 4.80368 88.8403 8.15798 88.8403 12.2991ZM100.54 12.2991C100.54 14.556 98.6742 16.3988 96.4516 16.3988C94.229 16.3988 92.3 14.556 92.3 12.2991C92.3 10.0422 94.1242 8.19939 96.4516 8.19939C98.779 8.19939 100.54 10.0629 100.54 12.2991ZM4.10968 21.6994C3.75323 21.1817 3.20806 20.8505 2.62097 20.8505C2.28548 20.8505 2.03387 20.954 1.71935 21.1196C0.880645 21.6787 0.629032 22.7347 1.15323 23.5215C2.5371 25.6127 4.86452 27 7.63226 27C10.4 27 12.6435 25.6127 14.0065 23.5215C14.5306 22.7347 14.279 21.6787 13.4403 21.1196C13.1677 20.954 12.8742 20.8505 12.5806 20.8505C11.9935 20.8505 11.4274 21.1817 11.05 21.6994C10.3161 22.8175 9.05807 23.5629 7.63226 23.5629C6.14355 23.5629 4.84355 22.8175 4.10968 21.6994ZM0 12.2991C0 16.5023 3.39677 19.8359 7.63226 19.8359C11.8677 19.8359 15.1597 16.4816 15.1597 12.2991C15.1597 8.11656 11.7629 4.80368 7.63226 4.80368C3.50161 4.80368 0 8.13727 0 12.2991ZM11.721 12.2991C11.721 14.556 9.85484 16.3988 7.63226 16.3988C5.40968 16.3988 3.48065 14.556 3.48065 12.2991C3.48065 10.0422 5.30484 8.19939 7.63226 8.19939C9.95968 8.19939 11.721 10.0629 11.721 12.2991Z" fill="#00793A"/>
<path d="M253.237 13.2036C253.237 16.9031 256.326 19.9281 260.129 19.9281C263.932 19.9281 267 16.8827 267 13.2036V6.80621C267 5.82513 266.202 5.08933 265.277 5.08933C264.352 5.08933 263.554 5.82513 263.554 6.80621V13.2036C263.554 15.0227 262.062 16.5352 260.129 16.5352C258.196 16.5352 256.725 15.0227 256.725 13.2036V6.80621C256.725 5.82513 255.927 5.08933 255.002 5.08933C254.078 5.08933 253.237 5.82513 253.237 6.80621V13.2036ZM256.662 21.7676C256.305 21.2566 255.738 20.9296 255.128 20.9296C254.834 20.9296 254.561 21.0318 254.267 21.1953C253.426 21.7472 253.195 22.7896 253.699 23.5662C255.065 25.6306 257.419 27 260.108 27C262.798 27 265.235 25.6306 266.559 23.5662C267.063 22.7896 266.853 21.7472 265.991 21.1953C265.718 21.0318 265.424 20.9296 265.088 20.9296C264.5 20.9296 263.953 21.2566 263.596 21.7676C262.861 22.8713 261.6 23.6071 260.108 23.6071C258.7 23.6071 257.377 22.8713 256.641 21.7676H256.662ZM246.913 1.676V18.2316C246.913 19.131 247.711 19.9076 248.636 19.9076C249.56 19.9076 250.359 19.131 250.359 18.2316V1.676C250.359 0.776684 249.602 0 248.636 0C247.669 0 246.913 0.735806 246.913 1.676ZM229.221 12.4883C229.221 16.6374 232.688 19.9281 236.827 19.9281C240.966 19.9281 244.475 16.617 244.475 12.4883C244.475 8.35958 241.008 5.08933 236.827 5.08933C235.23 5.08933 233.759 5.66162 232.709 6.58138V1.676C232.709 0.735806 231.952 0 230.986 0C230.019 0 229.221 0.735806 229.221 1.676V12.4883ZM236.827 8.44133C239.075 8.44133 240.945 10.2808 240.945 12.4883C240.945 14.6957 239.075 16.5352 236.827 16.5352C234.579 16.5352 232.709 14.7161 232.709 12.4883C232.709 10.2604 234.579 8.44133 236.827 8.44133ZM222.707 2.22786C222.707 3.29069 223.568 4.12869 224.64 4.12869C225.775 4.12869 226.636 3.29069 226.636 2.22786C226.636 1.16503 225.775 0.347464 224.64 0.347464C223.568 0.347464 222.707 1.16503 222.707 2.22786ZM222.896 6.78577V18.2316C222.896 19.131 223.694 19.9076 224.619 19.9076C225.607 19.9076 226.426 19.131 226.426 18.2316V6.78577C226.426 5.84557 225.628 5.06889 224.619 5.06889C223.694 5.06889 222.896 5.84557 222.896 6.78577ZM212.159 5.06889C209.49 5.06889 207.81 6.52006 207.368 8.23694C206.969 10.056 207.936 12.243 210.667 13.0606L216.277 14.8183C217.538 15.2271 217.286 16.5352 215.941 16.5352H209.553C208.629 16.5352 207.831 17.271 207.831 18.2521C207.831 19.1514 208.629 19.9281 209.553 19.9281H215.668C218.294 19.9281 219.996 18.436 220.417 16.76C220.816 14.941 219.891 12.754 217.097 11.8955L211.508 10.1582C210.247 9.72899 210.541 8.44133 211.844 8.44133H217.853C218.778 8.44133 219.555 7.66465 219.555 6.76533C219.555 5.86601 218.799 5.08933 217.853 5.08933H212.138L212.159 5.06889ZM191.294 11.7729V18.2521C191.294 19.1514 192.093 19.9281 193.017 19.9281C194.026 19.9281 194.782 19.1514 194.782 18.2521V11.7729C194.782 9.93338 196.337 8.44133 198.207 8.44133C200.077 8.44133 201.611 9.93338 201.611 11.7729V18.2521C201.611 19.1514 202.409 19.9281 203.376 19.9281C204.343 19.9281 205.099 19.1514 205.099 18.2521V11.7729C205.099 8.11431 201.968 5.06889 198.207 5.06889C194.446 5.06889 191.294 8.11431 191.294 11.7729ZM185.684 12.4883C185.684 14.7161 183.814 16.5352 181.566 16.5352C179.317 16.5352 177.363 14.7161 177.363 12.4883C177.363 10.2604 179.254 8.44133 181.566 8.44133C183.877 8.44133 185.684 10.2808 185.684 12.4883ZM173.938 12.4883C173.938 16.6374 177.342 19.9281 181.545 19.9281C185.747 19.9281 189.13 16.617 189.13 12.4883C189.13 8.35958 185.726 5.08933 181.545 5.08933C177.363 5.08933 173.938 8.40045 173.938 12.4883ZM156.961 12.4883V23.321C156.961 24.2203 157.759 24.997 158.684 24.997C159.608 24.997 160.407 24.2203 160.407 23.321V18.436C161.478 19.3762 162.928 19.9281 164.609 19.9281C168.769 19.9281 172.152 16.617 172.152 12.4883C172.152 8.35958 168.748 5.08933 164.609 5.08933C160.47 5.08933 156.961 8.40045 156.961 12.4883ZM168.748 12.4883C168.748 14.7161 166.857 16.5352 164.63 16.5352C162.403 16.5352 160.428 14.7161 160.428 12.4883C160.428 10.2604 162.298 8.44133 164.63 8.44133C166.962 8.44133 168.748 10.2808 168.748 12.4883ZM146.497 5.06889C143.828 5.06889 142.147 6.52006 141.706 8.23694C141.307 10.056 142.273 12.243 145.005 13.0606L150.615 14.8183C151.876 15.2271 151.624 16.5352 150.279 16.5352H143.891C142.967 16.5352 142.147 17.271 142.147 18.2521C142.147 19.1514 142.946 19.9281 143.891 19.9281H150.006C152.632 19.9281 154.334 18.436 154.754 16.76C155.154 14.941 154.229 12.754 151.435 11.8955L145.845 10.1582C144.585 9.72899 144.879 8.44133 146.182 8.44133H152.191C153.116 8.44133 153.893 7.66465 153.893 6.76533C153.893 5.86601 153.137 5.08933 152.191 5.08933H146.476L146.497 5.06889ZM136.348 11.3232H128.574C129.078 9.66768 130.633 8.44133 132.503 8.44133C134.373 8.44133 135.907 9.66768 136.369 11.3232H136.348ZM124.834 12.4883C124.834 16.6374 128.237 19.9281 132.482 19.9281C134.541 19.9281 136.474 19.0901 137.84 17.7615C138.512 17.0871 138.512 15.9833 137.84 15.3702C137.504 15.0227 137.083 14.8592 136.642 14.8592C136.201 14.8592 135.739 15.0227 135.382 15.3702C134.625 16.0855 133.596 16.5352 132.482 16.5352C130.612 16.5352 129.057 15.3293 128.553 13.7146H137.903C139.773 13.7146 140.256 12.6722 139.899 11.221C139.332 7.72597 136.201 5.06889 132.482 5.06889C128.216 5.06889 124.834 8.38002 124.834 12.4678V12.4883ZM115.021 11.7729V18.2725C115.021 19.2536 115.777 19.9894 116.744 19.9894C117.711 19.9894 118.467 19.2536 118.467 18.2725V11.7729C118.467 9.93338 119.959 8.44133 121.892 8.44133C122.816 8.44133 123.615 7.70553 123.615 6.76533C123.615 5.82513 122.816 5.08933 121.892 5.08933C118.089 5.08933 115 8.13475 115 11.7933L115.021 11.7729Z" fill="black"/>
</svg>
